<svg id="logosandtypes com" xmlns="http://www.w3.org/2000/svg" viewBox="0 0 150 150"><path d="M0 0h150v150H0z" fill="none"/><path d="M61.92 126.8a38.91 38.91 0 0033-33.76 25.83 25.83 0 012.43 11.07c0 14.32-11.62 23.77-25.93 23.77a42.22 42.22 0 01-9.5-1.08m43.22-75.6c-1.08-.81-4.32-3-6.75-4.59-8.91-5.94-15.67-9.45-15.67-15.93 0-4.05 3.24-7 7.57-7 7.83 0 17 7 17 7a54.24 54.24 0 0122.42 43.75 48.66 48.66 0 01-1.88 14.37c0-7.83-4.59-25.66-22.69-37.55m-73.47 54.79a54.3 54.3 0 01-10-31.61c0-29.71 22.69-50.78 47.81-53.75-.54.27-6.75 4.32-6.75 14.05 0 8.91 6.21 16.74 11.34 24 1.35 1.89 2.43 3.78 4 5.94C82.18 70.92 87 79.03 87 88.48a30.19 30.19 0 01-30.25 30.25c-14.58.27-21.61-7.83-25.12-12.69M13.58 74.43A62.12 62.12 0 1075.7 12.31a62.13 62.13 0 00-62.12 62.12" fill="#333"/></svg>